<svg width="687" height="216" viewBox="0 0 687 216" fill="none" xmlns="http://www.w3.org/2000/svg">
<rect width="687" height="216" fill="white"/>
<path d="M102.543 109.643L151.809 98.7695C152.527 102.027 152.919 105.337 152.984 108.65C140.836 112.289 133.685 115.727 131.386 117.195C111.844 129.222 106.587 148.973 106.402 157.345V159.946C104.748 160.073 103.084 160.119 101.418 160.082C93.7762 159.912 86.2725 158.008 79.4746 154.513C72.6768 151.018 66.762 146.024 62.1768 139.908C57.5915 133.793 54.4553 126.715 53.0059 119.21C52.9998 101.105 66.8181 92.955 78.0742 86.3574L102.543 109.643Z" fill="#154C4F"/>
<path d="M151.86 98.9321C149.783 89.3762 144.974 80.6297 138.018 73.7567C131.062 66.8838 122.258 62.1806 112.677 60.2194C103.097 58.2581 93.1533 59.1234 84.0557 62.7099C74.9581 66.2964 67.0989 72.4495 61.4341 80.4207L102.559 109.646L151.86 98.9321Z" fill="#154C4F"/>
<circle cx="102.56" cy="109.646" r="31.8235" fill="white"/>
<circle cx="102.56" cy="109.646" r="19.4046" fill="#0060B7"/>
<circle cx="102.559" cy="109.646" r="5.43328" fill="#15374F"/>
<circle cx="111.873" cy="100.332" r="4.12629" fill="white"/>
<path d="M132.938 119.523C113.396 131.55 108.14 151.301 107.955 159.673C121.724 138.847 143.301 128.873 152.369 126.49C134.532 136.023 120.139 154.418 115.172 162.423H127.386C141.719 162.035 150.519 156.74 158.847 150.14C167.174 143.54 170.727 136.785 172.911 129.423C175.095 122.062 174.515 108.585 173.466 102.657C172.282 105.004 165.817 107.668 162.733 108.707C145.559 113.107 135.714 117.751 132.938 119.523Z" fill="#499F3E"/>
<path d="M34.4473 75.934C30.8909 75.934 28.0079 73.0509 28.0079 69.4946L28.0079 44.8867C28.0079 34.5985 36.3481 26.2583 46.6363 26.2583L71.3973 26.2583C74.869 26.2583 77.6834 29.0726 77.6834 32.5443C77.6835 36.0161 74.8691 38.8305 71.3973 38.8305L59.2849 38.8305C49.1239 38.8305 40.8867 47.0677 40.8867 57.2288L40.8867 69.4946C40.8867 73.0509 38.0037 75.934 34.4473 75.934Z" fill="#3FB140"/>
<path d="M34.4395 141.324C30.8831 141.324 28.0001 144.207 28.0001 147.764L28.0001 172.372C28.0001 182.66 36.3403 191 46.6285 191L71.3895 191C74.8612 191 77.6756 188.186 77.6756 184.714C77.6757 181.242 74.8613 178.428 71.3895 178.428L59.2771 178.428C49.1161 178.428 40.8789 170.191 40.8789 160.03L40.8789 147.764C40.8789 144.207 37.9959 141.324 34.4395 141.324Z" fill="#0060B7"/>
<path d="M183.015 75.934C186.571 75.934 189.454 73.0509 189.454 69.4946L189.454 44.8867C189.454 34.5985 181.114 26.2583 170.826 26.2583L146.065 26.2583C142.593 26.2583 139.779 29.0726 139.778 32.5443C139.778 36.0161 142.593 38.8305 146.065 38.8305L158.177 38.8305C168.338 38.8305 176.575 47.0677 176.575 57.2288L176.575 69.4946C176.575 73.0509 179.458 75.934 183.015 75.934Z" fill="#0060B7"/>
<path d="M183.006 141.324C186.562 141.324 189.445 144.207 189.445 147.764L189.445 172.372C189.445 182.66 181.105 191 170.817 191L146.056 191C142.584 191 139.77 188.186 139.77 184.714C139.77 181.242 142.584 178.428 146.056 178.428L158.168 178.428C168.329 178.428 176.566 170.191 176.566 160.03L176.566 147.764C176.566 144.207 179.449 141.324 183.006 141.324Z" fill="#3FB140"/>
<path d="M223.344 143C221.301 143 220.28 142.125 220.28 140.374C220.28 139.596 220.523 138.623 221.009 137.456L258.07 48.7443C258.848 46.8961 259.675 45.6316 260.55 44.9507C261.523 44.1725 262.933 43.7834 264.781 43.7834H278.059C279.907 43.7834 281.269 44.1725 282.144 44.9507C283.117 45.6316 283.992 46.8961 284.77 48.7443L321.831 137.456C322.317 138.623 322.56 139.547 322.56 140.228C322.56 141.103 322.268 141.784 321.685 142.27C321.199 142.757 320.469 143 319.496 143H296.881C295.519 143 294.449 142.757 293.671 142.27C292.893 141.687 292.26 140.763 291.774 139.498L286.667 125.491H256.027L251.066 139.498C250.58 140.763 249.947 141.687 249.169 142.27C248.391 142.757 247.272 143 245.813 143H223.344ZM280.247 105.648L271.347 80.8437L262.447 105.648H280.247ZM339.788 143C336.967 143 334.973 142.416 333.805 141.249C332.735 140.082 332.2 138.234 332.2 135.705V51.2247C332.2 48.6956 332.784 46.8475 333.951 45.6802C335.119 44.4157 337.064 43.7834 339.788 43.7834H353.94C356.761 43.7834 358.755 44.4157 359.923 45.6802C361.09 46.8475 361.674 48.6956 361.674 51.2247V135.705C361.674 138.234 361.09 140.082 359.923 141.249C358.755 142.416 356.761 143 353.94 143H339.788ZM414.65 145.189C406.479 145.189 398.746 144.362 391.451 142.708C384.156 140.957 378.271 138.526 373.796 135.413C372.143 134.343 371.316 133.224 371.316 132.057C371.316 131.279 371.608 130.452 372.191 129.577L379.341 118.196C380.119 117.029 380.897 116.445 381.675 116.445C382.162 116.445 382.988 116.785 384.156 117.466C387.755 119.509 391.84 121.163 396.412 122.427C400.984 123.692 405.507 124.324 409.981 124.324C414.553 124.324 417.909 123.643 420.049 122.281C422.286 120.919 423.405 118.731 423.405 115.715C423.405 112.797 422.189 110.511 419.757 108.858C417.422 107.204 412.997 105.113 406.479 102.584C396.655 98.8875 388.971 94.7535 383.426 90.1818C377.979 85.5127 375.255 79.1901 375.255 71.2139C375.255 61.584 378.709 54.2401 385.615 49.182C392.521 44.1239 401.713 41.5948 413.191 41.5948C421.167 41.5948 427.976 42.3244 433.618 43.7834C439.357 45.1452 444.221 47.2852 448.209 50.2033C449.862 51.4678 450.689 52.6351 450.689 53.7051C450.689 54.386 450.397 55.1642 449.814 56.0396L442.664 67.4203C441.789 68.5876 441.011 69.1712 440.33 69.1712C439.843 69.1712 439.017 68.8307 437.849 68.1498C432.208 64.4535 425.496 62.6054 417.714 62.6054C413.532 62.6054 410.322 63.2863 408.084 64.6481C405.847 66.0099 404.729 68.2471 404.729 71.3598C404.729 73.4998 405.312 75.2506 406.479 76.6124C407.647 77.9742 409.203 79.1901 411.148 80.2601C413.191 81.2328 416.304 82.4973 420.487 84.0537L423.259 85.075C430.457 87.8959 436.099 90.6195 440.184 93.2458C444.367 95.7749 447.528 98.9362 449.668 102.73C451.808 106.426 452.878 111.095 452.878 116.737C452.878 125.394 449.619 132.3 443.102 137.456C436.682 142.611 427.198 145.189 414.65 145.189ZM456.168 143C454.125 143 453.104 142.125 453.104 140.374C453.104 139.596 453.347 138.623 453.833 137.456L490.893 48.7443C491.672 46.8961 492.498 45.6316 493.374 44.9507C494.346 44.1725 495.757 43.7834 497.605 43.7834H510.883C512.731 43.7834 514.093 44.1725 514.968 44.9507C515.941 45.6316 516.816 46.8961 517.594 48.7443L554.655 137.456C555.141 138.623 555.384 139.547 555.384 140.228C555.384 141.103 555.092 141.784 554.509 142.27C554.022 142.757 553.293 143 552.32 143H529.705C528.343 143 527.273 142.757 526.495 142.27C525.716 141.687 525.084 140.763 524.598 139.498L519.491 125.491H488.851L483.89 139.498C483.403 140.763 482.771 141.687 481.993 142.27C481.215 142.757 480.096 143 478.637 143H456.168ZM513.071 105.648L504.171 80.8437L495.271 105.648H513.071Z" fill="#154C4F"/>
<path d="M572.757 143C569.936 143 567.942 142.416 566.775 141.249C565.608 140.082 565.024 138.234 565.024 135.705V48.3065C565.024 46.5556 565.316 45.3884 565.9 44.8048C566.581 44.1239 567.942 43.7834 569.985 43.7834H585.597C587.64 43.7834 588.953 44.1239 589.537 44.8048C590.217 45.3884 590.558 46.5556 590.558 48.3065V78.9469C593.476 76.4179 596.978 74.4238 601.063 72.9648C605.246 71.5057 609.915 70.7762 615.07 70.7762C622.949 70.7762 629.32 73.0134 634.184 77.4879C639.048 81.8651 641.479 88.3822 641.479 97.0394V135.705C641.479 138.234 640.896 140.082 639.728 141.249C638.658 142.416 636.713 143 633.892 143H619.739C616.918 143 614.876 142.416 613.611 141.249C612.444 140.082 611.86 138.234 611.86 135.705V98.9362C611.86 96.018 611.228 93.9267 609.963 92.6622C608.796 91.3977 606.899 90.7654 604.273 90.7654C601.355 90.7654 598.972 91.5436 597.124 93.0999C595.373 94.6562 594.497 96.7962 594.497 99.5198V135.705C594.497 138.234 593.914 140.082 592.746 141.249C591.676 142.416 589.731 143 586.91 143H572.757Z" fill="#3FB140"/>
<path d="M231.432 166.38C231.432 167.294 231.216 168.156 230.785 168.966C230.354 169.776 229.665 170.44 228.716 170.957C227.768 171.457 226.553 171.707 225.07 171.707H221.812V179H218.863V161.027H225.07C226.449 161.027 227.613 161.268 228.561 161.751C229.527 162.216 230.242 162.854 230.708 163.664C231.19 164.475 231.432 165.38 231.432 166.38ZM225.07 169.302C226.191 169.302 227.027 169.052 227.579 168.552C228.13 168.035 228.406 167.311 228.406 166.38C228.406 164.414 227.294 163.432 225.07 163.432H221.812V169.302H225.07ZM235.744 162.863C235.209 162.863 234.761 162.682 234.399 162.32C234.037 161.958 233.856 161.509 233.856 160.975C233.856 160.44 234.037 159.992 234.399 159.63C234.761 159.268 235.209 159.087 235.744 159.087C236.261 159.087 236.7 159.268 237.062 159.63C237.424 159.992 237.606 160.44 237.606 160.975C237.606 161.509 237.424 161.958 237.062 162.32C236.7 162.682 236.261 162.863 235.744 162.863ZM237.192 164.751V179H234.244V164.751H237.192ZM248.252 164.518C249.372 164.518 250.372 164.751 251.252 165.216C252.148 165.682 252.846 166.371 253.346 167.285C253.846 168.199 254.096 169.302 254.096 170.595V179H251.174V171.035C251.174 169.759 250.855 168.785 250.217 168.113C249.579 167.423 248.709 167.078 247.605 167.078C246.502 167.078 245.623 167.423 244.967 168.113C244.329 168.785 244.011 169.759 244.011 171.035V179H241.062V164.751H244.011V166.38C244.493 165.794 245.105 165.337 245.847 165.009C246.605 164.682 247.407 164.518 248.252 164.518ZM256.874 171.811C256.874 170.38 257.167 169.113 257.753 168.009C258.357 166.906 259.167 166.052 260.184 165.449C261.219 164.828 262.365 164.518 263.624 164.518C264.555 164.518 265.469 164.725 266.365 165.139C267.279 165.535 268.003 166.07 268.537 166.742V159.863H271.511V179H268.537V176.854C268.055 177.543 267.382 178.112 266.52 178.56C265.675 179.009 264.701 179.233 263.598 179.233C262.357 179.233 261.219 178.922 260.184 178.302C259.167 177.664 258.357 176.785 257.753 175.664C257.167 174.526 256.874 173.242 256.874 171.811ZM268.537 171.862C268.537 170.88 268.331 170.026 267.917 169.302C267.52 168.578 266.994 168.026 266.339 167.647C265.684 167.268 264.977 167.078 264.219 167.078C263.46 167.078 262.753 167.268 262.098 167.647C261.443 168.009 260.908 168.552 260.495 169.276C260.098 169.983 259.9 170.828 259.9 171.811C259.9 172.793 260.098 173.655 260.495 174.397C260.908 175.138 261.443 175.707 262.098 176.104C262.77 176.483 263.477 176.673 264.219 176.673C264.977 176.673 265.684 176.483 266.339 176.104C266.994 175.724 267.52 175.173 267.917 174.448C268.331 173.707 268.537 172.845 268.537 171.862ZM274.401 171.811C274.401 170.38 274.694 169.113 275.28 168.009C275.884 166.906 276.694 166.052 277.711 165.449C278.746 164.828 279.883 164.518 281.125 164.518C282.245 164.518 283.22 164.742 284.047 165.19C284.892 165.621 285.564 166.164 286.064 166.82V164.751H289.038V179H286.064V176.879C285.564 177.552 284.883 178.112 284.021 178.56C283.159 179.009 282.176 179.233 281.073 179.233C279.849 179.233 278.728 178.922 277.711 178.302C276.694 177.664 275.884 176.785 275.28 175.664C274.694 174.526 274.401 173.242 274.401 171.811ZM286.064 171.862C286.064 170.88 285.857 170.026 285.444 169.302C285.047 168.578 284.521 168.026 283.866 167.647C283.211 167.268 282.504 167.078 281.745 167.078C280.987 167.078 280.28 167.268 279.625 167.647C278.97 168.009 278.435 168.552 278.021 169.276C277.625 169.983 277.427 170.828 277.427 171.811C277.427 172.793 277.625 173.655 278.021 174.397C278.435 175.138 278.97 175.707 279.625 176.104C280.297 176.483 281.004 176.673 281.745 176.673C282.504 176.673 283.211 176.483 283.866 176.104C284.521 175.724 285.047 175.173 285.444 174.448C285.857 173.707 286.064 172.845 286.064 171.862ZM294.41 162.863C293.876 162.863 293.428 162.682 293.066 162.32C292.704 161.958 292.523 161.509 292.523 160.975C292.523 160.44 292.704 159.992 293.066 159.63C293.428 159.268 293.876 159.087 294.41 159.087C294.928 159.087 295.367 159.268 295.729 159.63C296.091 159.992 296.272 160.44 296.272 160.975C296.272 161.509 296.091 161.958 295.729 162.32C295.367 162.682 294.928 162.863 294.41 162.863ZM295.859 164.751V179H292.911V164.751H295.859Z" fill="#154C4F"/>
<circle cx="318.924" cy="169" r="5" fill="#3FB140"/>
<path d="M351.768 179L344.812 170.957V179H341.863V161.027H344.812V169.225L351.794 161.027H355.492L347.682 170.026L355.621 179H351.768ZM371.288 171.526C371.288 172.061 371.254 172.543 371.185 172.974H360.297C360.384 174.112 360.806 175.026 361.565 175.716C362.323 176.405 363.254 176.75 364.358 176.75C365.944 176.75 367.064 176.086 367.719 174.759H370.9C370.469 176.069 369.685 177.147 368.547 177.991C367.426 178.819 366.03 179.233 364.358 179.233C362.996 179.233 361.771 178.931 360.685 178.328C359.616 177.707 358.772 176.845 358.151 175.742C357.548 174.621 357.246 173.328 357.246 171.862C357.246 170.397 357.539 169.113 358.125 168.009C358.728 166.888 359.565 166.026 360.634 165.423C361.72 164.82 362.961 164.518 364.358 164.518C365.702 164.518 366.901 164.811 367.952 165.397C369.004 165.983 369.823 166.811 370.409 167.88C370.995 168.931 371.288 170.147 371.288 171.526ZM368.211 170.595C368.194 169.509 367.806 168.638 367.047 167.983C366.289 167.328 365.349 167.001 364.228 167.001C363.211 167.001 362.34 167.328 361.616 167.983C360.892 168.621 360.461 169.492 360.323 170.595H368.211ZM381.379 164.518C382.5 164.518 383.499 164.751 384.379 165.216C385.275 165.682 385.974 166.371 386.474 167.285C386.973 168.199 387.223 169.302 387.223 170.595V179H384.301V171.035C384.301 169.759 383.982 168.785 383.344 168.113C382.706 167.423 381.836 167.078 380.732 167.078C379.629 167.078 378.75 167.423 378.095 168.113C377.457 168.785 377.138 169.759 377.138 171.035V179H374.19V164.751H377.138V166.38C377.62 165.794 378.232 165.337 378.974 165.009C379.732 164.682 380.534 164.518 381.379 164.518ZM390.001 171.811C390.001 170.38 390.294 169.113 390.881 168.009C391.484 166.906 392.294 166.052 393.311 165.449C394.346 164.828 395.484 164.518 396.725 164.518C397.846 164.518 398.82 164.742 399.647 165.19C400.492 165.621 401.165 166.164 401.665 166.82V164.751H404.639V179H401.665V176.879C401.165 177.552 400.484 178.112 399.622 178.56C398.76 179.009 397.777 179.233 396.673 179.233C395.449 179.233 394.329 178.922 393.311 178.302C392.294 177.664 391.484 176.785 390.881 175.664C390.294 174.526 390.001 173.242 390.001 171.811ZM401.665 171.862C401.665 170.88 401.458 170.026 401.044 169.302C400.647 168.578 400.122 168.026 399.466 167.647C398.811 167.268 398.104 167.078 397.346 167.078C396.587 167.078 395.88 167.268 395.225 167.647C394.57 168.009 394.036 168.552 393.622 169.276C393.225 169.983 393.027 170.828 393.027 171.811C393.027 172.793 393.225 173.655 393.622 174.397C394.036 175.138 394.57 175.707 395.225 176.104C395.898 176.483 396.604 176.673 397.346 176.673C398.104 176.673 398.811 176.483 399.466 176.104C400.122 175.724 400.647 175.173 401.044 174.448C401.458 173.707 401.665 172.845 401.665 171.862ZM411.459 159.863V179H408.511V159.863H411.459ZM416.83 162.863C416.295 162.863 415.847 162.682 415.485 162.32C415.123 161.958 414.942 161.509 414.942 160.975C414.942 160.44 415.123 159.992 415.485 159.63C415.847 159.268 416.295 159.087 416.83 159.087C417.347 159.087 417.786 159.268 418.148 159.63C418.511 159.992 418.692 160.44 418.692 160.975C418.692 161.509 418.511 161.958 418.148 162.32C417.786 162.682 417.347 162.863 416.83 162.863ZM418.278 164.751V179H415.33V164.751H418.278Z" fill="#154C4F"/>
<path d="M477.432 166.38C477.432 167.294 477.216 168.156 476.785 168.966C476.354 169.776 475.665 170.44 474.716 170.957C473.768 171.457 472.553 171.707 471.07 171.707H467.812V179H464.863V161.027H471.07C472.449 161.027 473.613 161.268 474.561 161.751C475.527 162.216 476.242 162.854 476.708 163.664C477.19 164.475 477.432 165.38 477.432 166.38ZM471.07 169.302C472.191 169.302 473.027 169.052 473.579 168.552C474.13 168.035 474.406 167.311 474.406 166.38C474.406 164.414 473.294 163.432 471.07 163.432H467.812V169.302H471.07ZM481.744 162.863C481.209 162.863 480.761 162.682 480.399 162.32C480.037 161.958 479.856 161.509 479.856 160.975C479.856 160.44 480.037 159.992 480.399 159.63C480.761 159.268 481.209 159.087 481.744 159.087C482.261 159.087 482.7 159.268 483.062 159.63C483.424 159.992 483.606 160.44 483.606 160.975C483.606 161.509 483.424 161.958 483.062 162.32C482.7 162.682 482.261 162.863 481.744 162.863ZM483.192 164.751V179H480.244V164.751H483.192ZM490.011 159.863V179H487.062V159.863H490.011ZM492.898 171.811C492.898 170.38 493.192 169.113 493.778 168.009C494.381 166.906 495.191 166.052 496.209 165.449C497.243 164.828 498.381 164.518 499.622 164.518C500.743 164.518 501.717 164.742 502.545 165.19C503.389 165.621 504.062 166.164 504.562 166.82V164.751H507.536V179H504.562V176.879C504.062 177.552 503.381 178.112 502.519 178.56C501.657 179.009 500.674 179.233 499.571 179.233C498.347 179.233 497.226 178.922 496.209 178.302C495.191 177.664 494.381 176.785 493.778 175.664C493.192 174.526 492.898 173.242 492.898 171.811ZM504.562 171.862C504.562 170.88 504.355 170.026 503.941 169.302C503.545 168.578 503.019 168.026 502.364 167.647C501.708 167.268 501.002 167.078 500.243 167.078C499.484 167.078 498.778 167.268 498.122 167.647C497.467 168.009 496.933 168.552 496.519 169.276C496.122 169.983 495.924 170.828 495.924 171.811C495.924 172.793 496.122 173.655 496.519 174.397C496.933 175.138 497.467 175.707 498.122 176.104C498.795 176.483 499.502 176.673 500.243 176.673C501.002 176.673 501.708 176.483 502.364 176.104C503.019 175.724 503.545 175.173 503.941 174.448C504.355 173.707 504.562 172.845 504.562 171.862ZM518.778 164.518C519.865 164.518 520.83 164.751 521.675 165.216C522.537 165.682 523.209 166.371 523.692 167.285C524.192 168.199 524.442 169.302 524.442 170.595V179H521.52V171.035C521.52 169.759 521.201 168.785 520.563 168.113C519.925 167.423 519.054 167.078 517.951 167.078C516.847 167.078 515.968 167.423 515.313 168.113C514.675 168.785 514.356 169.759 514.356 171.035V179H511.408V159.863H514.356V166.406C514.856 165.802 515.485 165.337 516.244 165.009C517.02 164.682 517.865 164.518 518.778 164.518Z" fill="#154C4F"/>
<path d="M573.812 176.621H579.889V179H570.863V161.027H573.812V176.621ZM581.372 171.811C581.372 170.38 581.665 169.113 582.251 168.009C582.854 166.906 583.665 166.052 584.682 165.449C585.716 164.828 586.854 164.518 588.095 164.518C589.216 164.518 590.19 164.742 591.018 165.19C591.863 165.621 592.535 166.164 593.035 166.82V164.751H596.009V179H593.035V176.879C592.535 177.552 591.854 178.112 590.992 178.56C590.13 179.009 589.147 179.233 588.044 179.233C586.82 179.233 585.699 178.922 584.682 178.302C583.665 177.664 582.854 176.785 582.251 175.664C581.665 174.526 581.372 173.242 581.372 171.811ZM593.035 171.862C593.035 170.88 592.828 170.026 592.414 169.302C592.018 168.578 591.492 168.026 590.837 167.647C590.182 167.268 589.475 167.078 588.716 167.078C587.958 167.078 587.251 167.268 586.596 167.647C585.94 168.009 585.406 168.552 584.992 169.276C584.596 169.983 584.397 170.828 584.397 171.811C584.397 172.793 584.596 173.655 584.992 174.397C585.406 175.138 585.94 175.707 586.596 176.104C587.268 176.483 587.975 176.673 588.716 176.673C589.475 176.673 590.182 176.483 590.837 176.104C591.492 175.724 592.018 175.173 592.414 174.448C592.828 173.707 593.035 172.845 593.035 171.862ZM598.898 171.862C598.898 170.397 599.192 169.113 599.778 168.009C600.381 166.888 601.209 166.026 602.26 165.423C603.312 164.82 604.519 164.518 605.881 164.518C607.605 164.518 609.027 164.932 610.148 165.759C611.286 166.57 612.053 167.733 612.45 169.25H609.269C609.01 168.544 608.596 167.992 608.027 167.595C607.458 167.199 606.743 167.001 605.881 167.001C604.674 167.001 603.709 167.432 602.984 168.294C602.278 169.138 601.924 170.328 601.924 171.862C601.924 173.397 602.278 174.595 602.984 175.457C603.709 176.319 604.674 176.75 605.881 176.75C607.588 176.75 608.717 176 609.269 174.5H612.45C612.036 175.948 611.26 177.104 610.122 177.966C608.984 178.81 607.57 179.233 605.881 179.233C604.519 179.233 603.312 178.931 602.26 178.328C601.209 177.707 600.381 176.845 599.778 175.742C599.192 174.621 598.898 173.328 598.898 171.862ZM614.405 171.811C614.405 170.38 614.698 169.113 615.284 168.009C615.888 166.906 616.698 166.052 617.715 165.449C618.75 164.828 619.887 164.518 621.129 164.518C622.249 164.518 623.223 164.742 624.051 165.19C624.896 165.621 625.568 166.164 626.068 166.82V164.751H629.042V179H626.068V176.879C625.568 177.552 624.887 178.112 624.025 178.56C623.163 179.009 622.18 179.233 621.077 179.233C619.853 179.233 618.732 178.922 617.715 178.302C616.698 177.664 615.888 176.785 615.284 175.664C614.698 174.526 614.405 173.242 614.405 171.811ZM626.068 171.862C626.068 170.88 625.861 170.026 625.448 169.302C625.051 168.578 624.525 168.026 623.87 167.647C623.215 167.268 622.508 167.078 621.749 167.078C620.991 167.078 620.284 167.268 619.629 167.647C618.974 168.009 618.439 168.552 618.025 169.276C617.629 169.983 617.431 170.828 617.431 171.811C617.431 172.793 617.629 173.655 618.025 174.397C618.439 175.138 618.974 175.707 619.629 176.104C620.301 176.483 621.008 176.673 621.749 176.673C622.508 176.673 623.215 176.483 623.87 176.104C624.525 175.724 625.051 175.173 625.448 174.448C625.861 173.707 626.068 172.845 626.068 171.862ZM638.552 171.888L645.121 179H641.138L635.863 172.871V179H632.914V159.863H635.863V170.983L641.035 164.751H645.121L638.552 171.888Z" fill="#154C4F"/>
<circle cx="441.924" cy="169" r="5" fill="#3FB140"/>
<circle cx="547.924" cy="169" r="5" fill="#3FB140"/>
</svg>
